HIERARCHY
ROOT root
{
	OFFSET 0.00 0.00 0.00
	CHANNELS 6 Xposition Yposition Zposition Zrotation Xrotation Yrotation
	JOINT lowerback
	{
		OFFSET 0 0 0
		CHANNELS 6 Xposition Yposition Zposition Zrotation Xrotation Yrotation
		JOINT upperback
		{
			OFFSET -0.214371 12.3768 -1.12219
			CHANNELS 6 Xposition Yposition Zposition Zrotation Xrotation Yrotation
			JOINT thorax
			{
				OFFSET -0.00137213 12.3873 0.296195
				CHANNELS 6 Xposition Yposition Zposition Zrotation Xrotation Yrotation
				JOINT lowerneck
				{
					OFFSET 0.0883157 12.5016 0.82912
					CHANNELS 6 Xposition Yposition Zposition Zrotation Xrotation Yrotation
					JOINT upperneck
					{
						OFFSET -1 10.1794 0.943522
						CHANNELS 6 Xposition Yposition Zposition Zrotation Xrotation Yrotation
						JOINT head
						{
							OFFSET 0.667525 10.2797 -1.57149
							CHANNELS 6 Xposition Yposition Zposition Zrotation Xrotation Yrotation
							End Site
							{
								OFFSET 0 0 0
							}
						}
					}
				}
				JOINT lclavicle
				{
					OFFSET 0.0883157 12.5016 0.82912
					CHANNELS 6 Xposition Yposition Zposition Zrotation Xrotation Yrotation
					JOINT lhumerus
					{
						OFFSET 20.61 4.45006 1.43784
						CHANNELS 6 Xposition Yposition Zposition Zrotation Xrotation Yrotation
						JOINT lradius
						{
							OFFSET 0 -30.3438 0
							CHANNELS 6 Xposition Yposition Zposition Zrotation Xrotation Yrotation
							JOINT lwrist
							{
								OFFSET 0 -18.964 0
								CHANNELS 6 Xposition Yposition Zposition Zrotation Xrotation Yrotation
								JOINT lhand
								{
									OFFSET 0 -9.48199 0
									CHANNELS 6 Xposition Yposition Zposition Zrotation Xrotation Yrotation
									JOINT lfingers
									{
										OFFSET 0 -3.17138 0
										CHANNELS 6 Xposition Yposition Zposition Zrotation Xrotation Yrotation
										End Site
										{
											OFFSET 0 -2.55685 0
										}
									}
								}
								JOINT lthumb
								{
									OFFSET 0 -9.48199 0
									CHANNELS 6 Xposition Yposition Zposition Zrotation Xrotation Yrotation
									End Site
									{
										OFFSET 0 -3.67114 0
									}
								}
							}
						}
					}
				}
				JOINT rclavicle
				{
					OFFSET 0.0883157 12.5016 0.82912
					CHANNELS 6 Xposition Yposition Zposition Zrotation Xrotation Yrotation
					JOINT rhumerus
					{
						OFFSET -20.61 4.45 1.44
						CHANNELS 6 Xposition Yposition Zposition Zrotation Xrotation Yrotation
						JOINT rradius
						{
							OFFSET 0 -29.5102 0
							CHANNELS 6 Xposition Yposition Zposition Zrotation Xrotation Yrotation
							JOINT rwrist
							{
								OFFSET 0 -19.2342 0
								CHANNELS 6 Xposition Yposition Zposition Zrotation Xrotation Yrotation
								JOINT rhand
								{
									OFFSET 0 -9.61712 0
									CHANNELS 6 Xposition Yposition Zposition Zrotation Xrotation Yrotation
									JOINT rfingers
									{
										OFFSET 0 -3.29215 0
										CHANNELS 6 Xposition Yposition Zposition Zrotation Xrotation Yrotation
										End Site
										{
											OFFSET 0 -2.557 0
										}
									}
								}
								JOINT rthumb
								{
									OFFSET 0 -9.61712 0
									CHANNELS 6 Xposition Yposition Zposition Zrotation Xrotation Yrotation
									End Site
									{
										OFFSET 0 -3.671 0
									}
								}
							}
						}
					}
				}
			}
		}
	}
	JOINT rfemur
	{
		OFFSET -8.46272 -9.62775 4.76248
		CHANNELS 6 Xposition Yposition Zposition Zrotation Xrotation Yrotation
		JOINT rtibia
		{
			OFFSET 1.00552e-005 -38.0331 0
			CHANNELS 6 Xposition Yposition Zposition Zrotation Xrotation Yrotation
			JOINT rfoot
			{
				OFFSET 1.14428e-005 -43.2815 0
				CHANNELS 6 Xposition Yposition Zposition Zrotation Xrotation Yrotation
				JOINT rtoes
				{
					OFFSET 0 -14.1868 -3.08763
					CHANNELS 6 Xposition Yposition Zposition Zrotation Xrotation Yrotation
					End Site
					{
						OFFSET 0 -7.27332 0
					}
				}
			}
		}
	}
	JOINT lfemur
	{
		OFFSET 9.10607 -9.62778 4.76249
		CHANNELS 6 Xposition Yposition Zposition Zrotation Xrotation Yrotation
		JOINT ltibia
		{
			OFFSET -1.01399e-005 -38.3535 0
			CHANNELS 6 Xposition Yposition Zposition Zrotation Xrotation Yrotation
			JOINT lfoot
			{
				OFFSET -1.12937e-005 -42.7176 0
				CHANNELS 6 Xposition Yposition Zposition Zrotation Xrotation Yrotation
				JOINT ltoes
				{
					OFFSET 0 -13.9965 -2.83857
					CHANNELS 6 Xposition Yposition Zposition Zrotation Xrotation Yrotation
					End Site
					{
						OFFSET 0 -7.16348 0
					}
				}
			}
		}
	}
}
MOTION
Frames: 6
Frame Time: 0.00833333
7.1602	94.2653	105.989	7.68672	-1.24359	-8.30676	0 0 0 -5.22439	-8.59923	1.92313	-0.214371 12.3768 -1.12219 -7.64212	0.813622	3.26233	-0.00137213 12.3873 0.296195 -4.63215	5.8488	1.44723	0.0883157 12.5016 0.82912 -11.0161	1.73358	-5.74234	-1 10.1794 0.943522 17.6866	-2.28104	-7.95148	0.667525 10.2797 -1.57149 7.30437	0.253258	-4.17726	0.0883157 12.5016 0.82912 -15	0	-0	20.61 4.45006 1.43784 29.8199	0.235178	-158.67	0 -30.3438 0 -0	37.2322	-0	0 -18.964 0 1.378e-014	-1.86876e-015	-105.446	0 -9.48199 0 1.22245	4.37968	-2.58917e-014	0 -3.17138 0 -0	7.12502	-0	0 -9.48199 0 25	15	-1.36605e-015	0.0883157 12.5016 0.82912 15	0	-0	-20.61 4.45 1.44 -15.8362	1.93709	-169.253	0 -29.5102 0 -0	35.6637	-0	0 -19.2342 0 8.15239e-016	-3.28268e-015	117.894	0 -9.61712 0 1.22	4.38	-0	0 -3.29215 0 -0	7.12502	-0	0 -9.61712 0 25	15	-7.97034e-015	-8.46272 -9.62775 4.76248 -8.17281	-17.1523	3.74832	1.00552e-005 -38.0331 0 -0	78.3208	-0	1.14428e-005 -43.2815 0 -2.62204	-63.7988	-2.922	0 -14.1868 -3.08763 -0	-53.5195	-0	9.10607 -9.62778 4.76249 -10.2403	-4.70036	23.0883	-1.01399e-005 -38.3535 0 -0	23.116	-0	-1.12937e-005 -42.7176 0 -49.6205	-65.0649	-52.362	0 -13.9965 -2.83857 -0	-4.85077	-0
7.14975	94.2455	106.361	7.7831	-1.342	-8.3373	0 0 0 -5.45915	-8.52273	1.67416	-0.214371 12.3768 -1.12219 -7.52883	0.910647	2.95139	-0.00137213 12.3873 0.296195 -4.42813	5.87884	1.28514	0.0883157 12.5016 0.82912 -10.7794	1.58401	-5.57784	-1 10.1794 0.943522 17.482	-2.20052	-7.71453	0.667525 10.2797 -1.57149 7.18647	0.246046	-4.04953	0.0883157 12.5016 0.82912 -15	0	-0	20.61 4.45006 1.43784 30.1413	-0.414437	-159.164	0 -30.3438 0 -0	37.9064	-0	0 -18.964 0 1.37841e-014	-1.85388e-015	-105.32	0 -9.48199 0 1.22245	4.37968	-2.58917e-014	0 -3.17138 0 -0	7.12502	-0	0 -9.48199 0 25	15	-1.36605e-015	0.0883157 12.5016 0.82912 15	0	-0	-20.61 4.45 1.44 -16.1184	2.2546	-170.149	0 -29.5102 0 -0	35.5742	-0	0 -19.2342 0 8.15755e-016	-3.28365e-015	117.903	0 -9.61712 0 1.22	4.38	-0	0 -3.29215 0 -0	7.12502	-0	0 -9.61712 0 25	15	-7.97034e-015	-8.46272 -9.62775 4.76248 -8.20099	-18.4649	3.88437	1.00552e-005 -38.0331 0 -0	79.2161	-0	1.14428e-005 -43.2815 0 -4.45224	-65.3149	-4.89813	0 -14.1868 -3.08763 -0	-54.2565	-0	9.10607 -9.62778 4.76249 -10.425	-4.2074	23.0767	-1.01399e-005 -38.3535 0 -0	22.8383	-0	-1.12937e-005 -42.7176 0 -49.6331	-64.9196	-52.4071	0 -13.9965 -2.83857 -0	-4.83793	-0
7.13422	94.2314	106.735	7.86095	-1.42859	-8.3349	0 0 0 -5.69268	-8.4389	1.42031	-0.214371 12.3768 -1.12219 -7.3984	0.998649	2.63224	-0.00137213 12.3873 0.296195 -4.20837	5.89708	1.11929	0.0883157 12.5016 0.82912 -10.531	1.42396	-5.41038	-1 10.1794 0.943522 17.2603	-2.12526	-7.47236	0.667525 10.2797 -1.57149 7.05987	0.23834	-3.91872	0.0883157 12.5016 0.82912 -15	0	-0	20.61 4.45006 1.43784 30.4593	-1.06418	-159.649	0 -30.3438 0 -0	38.5392	-0	0 -18.964 0 1.37871e-014	-1.84278e-015	-105.226	0 -9.48199 0 1.22245	4.37968	-2.58917e-014	0 -3.17138 0 -0	7.12502	-0	0 -9.48199 0 25	15	-1.36605e-015	0.0883157 12.5016 0.82912 15	0	-0	-20.61 4.45 1.44 -16.4317	2.59798	-171.029	0 -29.5102 0 -0	35.4642	-0	0 -19.2342 0 8.16042e-016	-3.28419e-015	117.908	0 -9.61712 0 1.22	4.38	-0	0 -3.29215 0 -0	7.12502	-0	0 -9.61712 0 25	15	-7.97034e-015	-8.46272 -9.62775 4.76248 -8.18229	-19.7415	4.02572	1.00552e-005 -38.0331 0 -0	79.9589	-0	1.14428e-005 -43.2815 0 -6.56599	-66.6749	-7.14476	0 -14.1868 -3.08763 -0	-54.7118	-0	9.10607 -9.62778 4.76249 -10.6029	-3.72872	22.9959	-1.01399e-005 -38.3535 0 -0	22.5658	-0	-1.12937e-005 -42.7176 0 -49.6117	-64.8361	-52.4051	0 -13.9965 -2.83857 -0	-4.88313	-0
7.1177	94.2229	107.108	7.92026	-1.50238	-8.30515	0 0 0 -5.92218	-8.34767	1.16443	-0.214371 12.3768 -1.12219 -7.25116	1.07683	2.30832	-0.00137213 12.3873 0.296195 -3.97415	5.90322	0.951535	0.0883157 12.5016 0.82912 -10.2712	1.25337	-5.24013	-1 10.1794 0.943522 17.0219	-2.05439	-7.22547	0.667525 10.2797 -1.57149 6.92498	0.230697	-3.78511	0.0883157 12.5016 0.82912 -15	0	-0	20.61 4.45006 1.43784 30.7689	-1.71472	-160.122	0 -30.3438 0 -0	39.1309	-0	0 -18.964 0 1.3789e-014	-1.83569e-015	-105.166	0 -9.48199 0 1.22245	4.37968	-2.58917e-014	0 -3.17138 0 -0	7.12502	-0	0 -9.48199 0 25	15	-1.36605e-015	0.0883157 12.5016 0.82912 15	0	-0	-20.61 4.45 1.44 -16.7745	2.96522	-171.897	0 -29.5102 0 -0	35.3292	-0	0 -19.2342 0 8.15984e-016	-3.28408e-015	117.907	0 -9.61712 0 1.22	4.38	-0	0 -3.29215 0 -0	7.12502	-0	0 -9.61712 0 25	15	-7.97034e-015	-8.46272 -9.62775 4.76248 -8.11652	-20.9825	4.17878	1.00552e-005 -38.0331 0 -0	80.549	-0	1.14428e-005 -43.2815 0 -8.87719	-67.8689	-9.57083	0 -14.1868 -3.08763 -0	-54.9222	-0	9.10607 -9.62778 4.76249 -10.7729	-3.26656	22.8524	-1.01399e-005 -38.3535 0 -0	22.301	-0	-1.12937e-005 -42.7176 0 -49.5646	-64.8196	-52.3627	0 -13.9965 -2.83857 -0	-4.98762	-0
7.10044	94.2218	107.485	7.96071	-1.56216	-8.25383	0 0 0 -6.1446	-8.24953	0.909162	-0.214371 12.3768 -1.12219 -7.08749	1.14447	1.98284	-0.00137213 12.3873 0.296195 -3.72691	5.89732	0.783629	0.0883157 12.5016 0.82912 -10.0001	1.07217	-5.06732	-1 10.1794 0.943522 16.767	-1.98725	-6.97449	0.667525 10.2797 -1.57149 6.78237	0.22362	-3.64907	0.0883157 12.5016 0.82912 -15	0	-0	20.61 4.45006 1.43784 31.0659	-2.36614	-160.583	0 -30.3438 0 -0	39.6833	-0	0 -18.964 0 1.37898e-014	-1.83273e-015	-105.141	0 -9.48199 0 1.22245	4.37968	-2.58917e-014	0 -3.17138 0 -0	7.12502	-0	0 -9.48199 0 25	15	-1.36605e-015	0.0883157 12.5016 0.82912 15	0	-0	-20.61 4.45 1.44 -17.1453	3.35358	-172.751	0 -29.5102 0 -0	35.1643	-0	0 -19.2342 0 8.15411e-016	-3.283e-015	117.897	0 -9.61712 0 1.22	4.38	-0	0 -3.29215 0 -0	7.12502	-0	0 -9.61712 0 25	15	-7.97034e-015	-8.46272 -9.62775 4.76248 -8.00273	-22.1891	4.34998	1.00552e-005 -38.0331 0 -0	80.9871	-0	1.14428e-005 -43.2815 0 -11.275	-68.8973	-12.0627	0 -14.1868 -3.08763 -0	-54.9369	-0	9.10607 -9.62778 4.76249 -10.9332	-2.82331	22.6537	-1.01399e-005 -38.3535 0 -0	22.0463	-0	-1.12937e-005 -42.7176 0 -49.4987	-64.8736	-52.2858	0 -13.9965 -2.83857 -0	-5.15402	-0
7.07982	94.2257	107.865	7.98184	-1.60666	-8.1867	0 0 0 -6.35706	-8.14529	0.65688	-0.214371 12.3768 -1.12219 -6.90782	1.20095	1.6587	-0.00137213 12.3873 0.296195 -3.46809	5.87964	0.617141	0.0883157 12.5016 0.82912 -9.71732	0.880395	-4.89225	-1 10.1794 0.943522 16.4954	-1.92348	-6.72009	0.667525 10.2797 -1.57149 6.63275	0.217483	-3.51099	0.0883157 12.5016 0.82912 -15	0	-0	20.61 4.45006 1.43784 31.3467	-3.01778	-161.029	0 -30.3438 0 -0	40.1996	-0	0 -18.964 0 1.37896e-014	-1.83344e-015	-105.147	0 -9.48199 0 1.22245	4.37968	-2.58917e-014	0 -3.17138 0 -0	7.12502	-0	0 -9.48199 0 25	15	-1.36605e-015	0.0883157 12.5016 0.82912 15	0	-0	-20.61 4.45 1.44 -17.5418	3.75973	-173.593	0 -29.5102 0 -0	34.9644	-0	0 -19.2342 0 8.14437e-016	-3.28116e-015	117.88	0 -9.61712 0 1.22	4.38	-0	0 -3.29215 0 -0	7.12502	-0	0 -9.61712 0 25	15	-7.97034e-015	-8.46272 -9.62775 4.76248 -7.83957	-23.3628	4.5456	1.00552e-005 -38.0331 0 -0	81.2754	-0	1.14428e-005 -43.2815 0 -13.6353	-69.7702	-14.4952	0 -14.1868 -3.08763 -0	-54.8122	-0	9.10607 -9.62778 4.76249 -11.082	-2.40122	22.4077	-1.01399e-005 -38.3535 0 -0	21.8036	-0	-1.12937e-005 -42.7176 0 -49.4195	-64.9994	-52.1797	0 -13.9965 -2.83857 -0	-5.38639	-0
